<mxfile host="app.diagrams.net" modified="2021-03-16T13:57:24.917Z" agent="5.0 (Macintosh; Intel Mac OS X 10_15_7) AppleWebKit/537.36 (KHTML, like Gecko) Chrome/89.0.4389.72 Safari/537.36" etag="xAeKE0PkFIyzJ9DcuF4s" version="14.4.8" type="github">
  <diagram id="0gMku5sTp0iM9H06Dtuo" name="Page-1">
    <mxGraphModel dx="1128" dy="789" grid="1" gridSize="10" guides="1" tooltips="1" connect="1" arrows="1" fold="1" page="1" pageScale="1" pageWidth="827" pageHeight="1169" math="0" shadow="0">
      <root>
        <mxCell id="0" />
        <mxCell id="1" parent="0" />
        <mxCell id="jgpEuyPaL84JSYdbX6UQ-4" value="" style="rounded=0;whiteSpace=wrap;html=1;dashed=1;" vertex="1" parent="1">
          <mxGeometry x="140" y="115" width="1060" height="50" as="geometry" />
        </mxCell>
        <mxCell id="jgpEuyPaL84JSYdbX6UQ-7" value="&lt;font style=&quot;font-size: 14px&quot;&gt;&lt;b&gt;流量入口&lt;/b&gt;&lt;/font&gt;" style="text;html=1;strokeColor=none;fillColor=none;align=center;verticalAlign=middle;whiteSpace=wrap;rounded=0;dashed=1;" vertex="1" parent="1">
          <mxGeometry x="140" y="125" width="70" height="30" as="geometry" />
        </mxCell>
        <mxCell id="jgpEuyPaL84JSYdbX6UQ-8" value="战神平台" style="rounded=0;whiteSpace=wrap;html=1;fillColor=#d5e8d4;strokeColor=#82b366;" vertex="1" parent="1">
          <mxGeometry x="220" y="122.5" width="90" height="35" as="geometry" />
        </mxCell>
        <mxCell id="jgpEuyPaL84JSYdbX6UQ-9" value="下单支付服务" style="rounded=0;whiteSpace=wrap;html=1;fillColor=#d5e8d4;strokeColor=#82b366;" vertex="1" parent="1">
          <mxGeometry x="324" y="122.5" width="90" height="35" as="geometry" />
        </mxCell>
        <mxCell id="jgpEuyPaL84JSYdbX6UQ-10" value="UG活动" style="rounded=0;whiteSpace=wrap;html=1;fillColor=#d5e8d4;strokeColor=#82b366;" vertex="1" parent="1">
          <mxGeometry x="430" y="122.5" width="90" height="35" as="geometry" />
        </mxCell>
        <mxCell id="jgpEuyPaL84JSYdbX6UQ-11" value="电商中台" style="rounded=0;whiteSpace=wrap;html=1;fillColor=#d5e8d4;strokeColor=#82b366;" vertex="1" parent="1">
          <mxGeometry x="530" y="122.5" width="90" height="35" as="geometry" />
        </mxCell>
        <mxCell id="jgpEuyPaL84JSYdbX6UQ-12" value="微信卡券" style="rounded=0;whiteSpace=wrap;html=1;fillColor=#d5e8d4;strokeColor=#82b366;" vertex="1" parent="1">
          <mxGeometry x="640" y="122.5" width="90" height="35" as="geometry" />
        </mxCell>
        <mxCell id="jgpEuyPaL84JSYdbX6UQ-13" value="外部渠道服务" style="rounded=0;whiteSpace=wrap;html=1;fillColor=#d5e8d4;strokeColor=#82b366;" vertex="1" parent="1">
          <mxGeometry x="750" y="122.5" width="90" height="35" as="geometry" />
        </mxCell>
        <mxCell id="jgpEuyPaL84JSYdbX6UQ-14" value="灯塔数据" style="rounded=0;whiteSpace=wrap;html=1;fillColor=#d5e8d4;strokeColor=#82b366;" vertex="1" parent="1">
          <mxGeometry x="860" y="122.5" width="90" height="35" as="geometry" />
        </mxCell>
        <mxCell id="jgpEuyPaL84JSYdbX6UQ-15" value="。。。" style="rounded=0;whiteSpace=wrap;html=1;fillColor=#d5e8d4;strokeColor=#82b366;" vertex="1" parent="1">
          <mxGeometry x="970" y="122.5" width="90" height="35" as="geometry" />
        </mxCell>
        <mxCell id="jgpEuyPaL84JSYdbX6UQ-16" value="" style="rounded=0;whiteSpace=wrap;html=1;dashed=1;" vertex="1" parent="1">
          <mxGeometry x="140" y="180" width="340" height="320" as="geometry" />
        </mxCell>
        <mxCell id="jgpEuyPaL84JSYdbX6UQ-17" value="" style="rounded=0;whiteSpace=wrap;html=1;dashed=1;" vertex="1" parent="1">
          <mxGeometry x="500" y="180" width="340" height="320" as="geometry" />
        </mxCell>
        <mxCell id="jgpEuyPaL84JSYdbX6UQ-18" value="" style="rounded=0;whiteSpace=wrap;html=1;dashed=1;" vertex="1" parent="1">
          <mxGeometry x="860" y="180" width="340" height="320" as="geometry" />
        </mxCell>
        <mxCell id="jgpEuyPaL84JSYdbX6UQ-19" value="" style="rounded=0;whiteSpace=wrap;html=1;dashed=1;" vertex="1" parent="1">
          <mxGeometry x="140" y="530" width="550" height="320" as="geometry" />
        </mxCell>
        <mxCell id="jgpEuyPaL84JSYdbX6UQ-20" value="&lt;font style=&quot;font-size: 14px&quot;&gt;&lt;b&gt;预算管控&lt;/b&gt;&lt;/font&gt;" style="text;html=1;strokeColor=none;fillColor=none;align=center;verticalAlign=middle;whiteSpace=wrap;rounded=0;dashed=1;" vertex="1" parent="1">
          <mxGeometry x="150" y="190" width="70" height="30" as="geometry" />
        </mxCell>
        <mxCell id="jgpEuyPaL84JSYdbX6UQ-21" value="&lt;font style=&quot;font-size: 14px&quot;&gt;&lt;b&gt;优惠凭证&lt;/b&gt;&lt;/font&gt;" style="text;html=1;strokeColor=none;fillColor=none;align=center;verticalAlign=middle;whiteSpace=wrap;rounded=0;dashed=1;" vertex="1" parent="1">
          <mxGeometry x="510" y="190" width="70" height="30" as="geometry" />
        </mxCell>
        <mxCell id="jgpEuyPaL84JSYdbX6UQ-22" value="&lt;font style=&quot;font-size: 14px&quot;&gt;&lt;b&gt;价格计算&lt;/b&gt;&lt;/font&gt;" style="text;html=1;strokeColor=none;fillColor=none;align=center;verticalAlign=middle;whiteSpace=wrap;rounded=0;dashed=1;" vertex="1" parent="1">
          <mxGeometry x="870" y="190" width="70" height="30" as="geometry" />
        </mxCell>
        <mxCell id="jgpEuyPaL84JSYdbX6UQ-23" value="" style="rounded=0;whiteSpace=wrap;html=1;dashed=1;" vertex="1" parent="1">
          <mxGeometry x="710" y="530" width="490" height="320" as="geometry" />
        </mxCell>
        <mxCell id="jgpEuyPaL84JSYdbX6UQ-24" value="&lt;span style=&quot;font-size: 14px&quot;&gt;&lt;b&gt;平台优惠&lt;/b&gt;&lt;/span&gt;" style="text;html=1;strokeColor=none;fillColor=none;align=center;verticalAlign=middle;whiteSpace=wrap;rounded=0;dashed=1;" vertex="1" parent="1">
          <mxGeometry x="150" y="540" width="70" height="30" as="geometry" />
        </mxCell>
        <mxCell id="jgpEuyPaL84JSYdbX6UQ-25" value="&lt;span style=&quot;font-size: 14px&quot;&gt;&lt;b&gt;商家优惠&lt;/b&gt;&lt;/span&gt;" style="text;html=1;strokeColor=none;fillColor=none;align=center;verticalAlign=middle;whiteSpace=wrap;rounded=0;dashed=1;" vertex="1" parent="1">
          <mxGeometry x="720" y="540" width="70" height="30" as="geometry" />
        </mxCell>
      </root>
    </mxGraphModel>
  </diagram>
</mxfile>
